{"title":"Liquid Liquid - Cavern - (Jimmy fallon-02-04-2010)[hdtv-Divx]","uid":5544480,"size":83540482,"categoryP":"video","categoryS":"music_videos","magnet":"?xt=urn:btih:54b1a2d3ed642ab3a47aba774128c447ae03fd14&amp;dn=Liquid+Liquid+-+Cavern+-+%28Jimmy+fallon-02-04-2010%29%5Bhdtv-Divx%5D&amp;tr=udp%3A%2F%2Ftracker.openbittorrent.com%3A80&amp;tr=udp%3A%2F%2Fopen.demonii.com%3A1337&amp;tr=udp%3A%2F%2Ftracker.coppersurfer.tk%3A6969&amp;tr=udp%3A%2F%2Fexodus.desync.com%3A6969","seeders":0,"leechers":1,"uploader":"seanprince","files":-1,"time":1273338381,"description":"\nLiquid Liquid - Cavern - (Jimmy fallon-02-04-2010)[hdtv-Divx]\n\nRecorded From The Jimmy Fallon Show On The 2nd April 2010. This was Liquid Liquids first performance On US TV.\n\nOn April 2, 2010, the band performed &quot;Cavern&quot; with The Roots on Late Night with Jimmy Fallon.\n\n\nGeneral\nComplete name : Liquid Liquid - Cavern.divx\nFormat : AVI\nFormat/Info : Audio Video Interleave\nFile size : 79.7 MiB\nDuration : 7mn 25s\nOverall bit rate : 1 502 Kbps\n\nVideo\nID : 0\nFormat : MPEG-4 Visual\nFormat settings, BVOP : Yes\nFormat settings, QPel : No\nFormat settings, GMC : No warppoints\nFormat settings, Matrix : Default (H.263)\nMuxing mode : Packed bitstream\nCodec ID : DX50\nCodec ID/Hint : DivX 5\nDuration : 7mn 24s\nBit rate : 1 300 Kbps\nWidth : 688 pixels\nHeight : 384 pixels\nDisplay aspect ratio : 16:9\nFrame rate : 25.000 fps\nResolution : 8 bits\nColorimetry : 4:2:0\nScan type : Progressive\nBits/(Pixel*Frame) : 0.197\nStream size : 69.0 MiB (87%)\nTitle : Video\nWriting library : DivX 6.8.2 (UTC 2008-05-17)\n\nAudio\nID : 1\nFormat : AC-3\nFormat/Info : Audio Coding 3\nCodec ID : 2000\nDuration : 7mn 25s\nBit rate mode : Constant\nBit rate : 192 Kbps\nChannel(s) : 2 channels\nChannel positions : Front: L R\nSampling rate : 48.0 KHz\nStream size : 10.2 MiB (13%)\nAlignment : Split accross interleaves\nInterleave, duration : 40 ms (1.00 video frame)\nInterleave, preload duration : 500 ms ","torrent":{"xt":"urn:btih:54b1a2d3ed642ab3a47aba774128c447ae03fd14","amp;dn":"Liquid+Liquid+-+Cavern+-+%28Jimmy+fallon-02-04-2010%29%5Bhdtv-Divx%5D","amp;tr":["udp%3A%2F%2Ftracker.openbittorrent.com%3A80","udp%3A%2F%2Fopen.demonii.com%3A1337","udp%3A%2F%2Ftracker.coppersurfer.tk%3A6969","udp%3A%2F%2Fexodus.desync.com%3A6969"],"infoHash":"54b1a2d3ed642ab3a47aba774128c447ae03fd14","infoHashBuffer":{"type":"Buffer","data":[84,177,162,211,237,100,42,179,164,122,186,119,65,40,196,71,174,3,253,20]},"announce":[],"urlList":[]}}